<?xml version="1.0" standalone="no"?>
<!DOCTYPE svg PUBLIC "-//W3C//DTD SVG 20010904//EN"
 "http://www.w3.org/TR/2001/REC-SVG-20010904/DTD/svg10.dtd">
<svg version="1.0" xmlns="http://www.w3.org/2000/svg"
 width="240.000000pt" height="240.000000pt" viewBox="0 0 240.000000 240.000000"
 preserveAspectRatio="xMidYMid meet">

<g transform="translate(0.000000,240.000000) scale(0.100000,-0.100000)"
fill="#000000" stroke="none">
<path d="M950 2279 c-131 -62 -230 -89 -329 -89 -55 0 -91 -4 -91 -10 0 -15
61 -50 88 -50 21 0 18 -4 -21 -37 -91 -79 -146 -178 -147 -269 0 -32 11 -60
50 -125 45 -74 49 -86 39 -106 -9 -17 -9 -26 0 -37 10 -12 5 -22 -29 -57 -38
-39 -39 -43 -24 -60 9 -10 35 -27 59 -38 35 -16 45 -27 50 -53 3 -18 11 -46
17 -62 12 -30 22 -31 109 -10 23 5 29 1 47 -34 l21 -40 -54 -36 c-93 -61 -212
-173 -235 -221 -23 -48 -20 -66 23 -113 l21 -23 -23 -65 c-20 -56 -21 -69 -11
-95 7 -16 24 -38 37 -49 l25 -20 -33 -52 c-87 -138 -164 -241 -205 -275 -67
-54 -96 -110 -100 -191 l-3 -67 9 59 c16 97 45 143 133 210 43 32 99 84 125
114 100 115 102 117 190 142 84 23 105 22 82 -5 -18 -22 1 -55 63 -111 60 -53
113 -70 180 -57 56 11 61 0 26 -57 -57 -92 -82 -149 -94 -214 -8 -39 -11 -73
-9 -76 10 -9 24 25 24 57 0 18 9 57 21 88 17 45 24 55 37 50 38 -16 50 -16 66
0 14 14 16 44 16 213 0 179 -5 238 -24 282 -5 13 9 15 97 15 l104 0 -8 -30
c-15 -50 -10 -108 11 -143 15 -25 18 -38 10 -51 -12 -23 3 -158 19 -174 6 -6
11 -25 11 -42 0 -38 25 -75 50 -75 21 0 52 -72 65 -147 4 -27 12 -43 21 -43 8
0 14 5 14 12 0 9 3 9 12 0 26 -26 27 -10 1 23 -15 19 -28 38 -29 42 -2 20 -49
114 -89 178 -25 39 -45 74 -45 77 0 2 13 5 30 5 17 0 27 -5 23 -10 -4 -7 3 -7
18 -2 13 4 40 8 61 9 20 1 34 4 31 8 -2 5 4 7 14 5 10 -1 20 3 23 8 2 6 21 33
42 60 21 28 38 54 38 58 0 5 5 5 11 1 7 -4 10 -1 7 7 -3 8 2 20 11 27 14 12
13 13 -8 8 -17 -3 -21 -2 -13 6 6 6 18 8 27 4 13 -4 14 -10 5 -26 -8 -15 -8
-20 1 -20 6 0 13 9 16 20 6 24 1 24 67 0 40 -16 64 -33 92 -68 51 -65 69 -81
169 -158 49 -36 98 -78 111 -93 23 -26 54 -118 54 -159 0 -12 4 -22 9 -22 13
0 20 88 10 125 -5 18 -73 124 -150 236 -77 112 -152 223 -166 247 l-25 42 31
35 c38 44 40 79 5 147 l-26 51 21 37 c30 54 27 84 -14 129 -35 39 -152 124
-213 155 l-33 17 19 27 c10 15 23 39 29 53 9 20 21 28 53 33 27 4 53 17 70 35
27 26 28 31 19 72 -6 23 -20 61 -32 82 l-22 39 23 36 c74 120 84 196 39 295
l-26 56 44 -6 c24 -3 51 -3 61 1 24 9 4 29 -95 93 -46 30 -121 90 -165 132
-67 64 -92 81 -136 94 -86 24 -159 30 -243 18 -69 -10 -84 -9 -137 9 -33 11
-65 20 -72 20 -7 0 -42 -14 -78 -31z m444 -484 c45 -62 170 -185 187 -185 5 0
-3 -17 -17 -37 -28 -42 -39 -76 -30 -99 6 -16 25 -15 69 2 11 4 13 -1 10 -20
-5 -23 -2 -26 21 -26 36 0 69 52 62 97 -4 31 8 53 22 39 11 -12 3 -93 -14
-135 -20 -50 -57 -81 -96 -81 -26 0 -29 3 -25 23 14 60 17 91 9 77 -6 -8 -13
-34 -17 -57 -8 -53 -63 -145 -122 -205 -135 -137 -373 -170 -537 -74 -104 61
-192 209 -199 334 l-2 39 33 -9 c37 -10 72 -3 72 16 0 7 -11 23 -25 36 -13 12
-37 41 -52 63 l-28 40 25 16 c78 51 149 114 180 160 l35 52 6 -29 c10 -50 52
-123 93 -160 44 -39 53 -33 37 25 -6 21 -11 51 -11 67 0 28 1 28 45 -22 25
-28 61 -61 80 -72 29 -18 33 -25 25 -40 -14 -26 -12 -60 3 -60 7 0 18 14 24
31 12 31 13 32 61 25 52 -7 86 0 76 15 -3 5 1 9 9 9 25 0 64 -39 81 -80 20
-49 36 -44 36 12 0 33 -6 47 -38 79 -21 21 -52 41 -68 44 -16 4 -34 8 -41 10
-6 2 -19 30 -28 62 -9 32 -18 66 -21 75 -10 34 22 8 70 -57z m-784 -255 c0 -5
-9 -10 -20 -10 -11 0 -20 5 -20 10 0 6 9 10 20 10 11 0 20 -4 20 -10z m61
-102 c27 -8 39 -17 39 -30 0 -25 -40 -24 -72 2 -33 26 -61 82 -45 92 6 4 17
-5 25 -23 10 -20 27 -33 53 -41z m839 -237 c0 -5 -7 -11 -14 -14 -10 -4 -13
-1 -9 9 6 15 23 19 23 5z m242 -93 c45 -35 91 -78 101 -96 l19 -32 -27 -46
-27 -47 28 -60 c16 -33 27 -69 25 -81 -8 -47 -61 -87 -61 -45 0 10 -5 19 -11
19 -5 0 -8 4 -5 9 11 17 -114 51 -190 51 -19 0 -34 4 -34 8 0 5 23 47 52 93
80 131 93 159 81 178 -5 9 -22 17 -38 19 -25 3 -27 6 -21 34 3 17 6 37 6 44 0
24 17 16 102 -48z m-1032 2 c0 -12 -48 -32 -64 -27 -8 3 31 26 62 36 1 1 2 -4
2 -9z m835 1 c3 -5 2 -12 -3 -15 -5 -3 -9 1 -9 9 0 17 3 19 12 6z m-205 -30
c0 -14 -111 -41 -224 -53 -92 -11 -109 -10 -116 2 -16 25 -12 26 50 16 64 -11
176 3 248 29 20 8 38 14 40 14 1 1 2 -3 2 -8z m-588 -38 c-2 -23 10 -54 47
-120 64 -111 67 -99 4 17 -61 115 -50 143 40 105 44 -18 81 -66 96 -121 6 -23
36 -90 67 -148 64 -122 76 -182 50 -239 -25 -51 -63 -64 -113 -38 -50 25 -60
41 -114 175 -27 69 -72 154 -121 229 -43 66 -78 127 -78 136 0 12 14 21 43 28
69 17 83 13 79 -24z m875 25 c32 -8 53 -18 53 -26 0 -8 -29 -62 -64 -121 -68
-112 -99 -181 -136 -299 -17 -53 -31 -80 -57 -102 -46 -41 -92 -41 -126 0 -53
62 -48 116 23 270 27 58 51 121 55 140 4 19 15 48 24 63 29 51 133 88 147 53
3 -7 -12 -51 -34 -97 -59 -126 -61 -148 -3 -34 40 78 51 107 47 133 -5 37 -4
37 71 20z m-946 -158 c19 -17 63 -90 55 -90 -3 0 5 -11 18 -25 38 -40 39 -62
4 -69 -81 -16 -167 -48 -162 -61 3 -8 -6 -17 -23 -23 -15 -6 -22 -11 -15 -11
6 -1 12 -6 12 -11 0 -18 -40 9 -52 35 -9 19 -6 36 12 85 l23 61 -32 44 c-17
24 -31 49 -31 57 0 22 41 81 78 114 l35 30 31 -60 c17 -34 38 -68 47 -76z
m1048 -175 c8 -7 10 -19 5 -26 -4 -7 -8 -50 -8 -95 -1 -45 -4 -86 -8 -90 -4
-4 -31 0 -59 9 -28 10 -62 17 -74 17 -14 0 -25 7 -28 21 -3 11 -19 25 -36 32
-35 13 -34 24 5 113 l22 50 84 -8 c45 -5 89 -15 97 -23z m-895 -102 c5 -16 3
-23 -7 -23 -16 0 -46 -31 -44 -45 1 -5 -16 -13 -38 -16 -22 -3 -52 -9 -67 -13
-26 -8 -27 -7 -31 46 l-3 53 -2 -57 c-2 -54 -3 -57 -32 -63 -20 -4 -46 -27
-86 -79 -32 -39 -69 -80 -83 -91 l-25 -19 24 39 c13 22 38 61 56 87 17 26 54
84 80 129 52 88 64 96 167 123 l52 14 16 -32 c9 -17 20 -41 23 -53z m935 -30
l6 -48 5 54 5 55 74 -115 c41 -63 77 -116 80 -119 3 -3 11 -13 16 -22 6 -9 38
-57 73 -107 l63 -91 -83 62 c-102 75 -178 151 -201 201 -13 27 -24 37 -41 37
-23 0 -24 3 -24 81 1 88 16 95 27 12z m-927 -23 c-7 -30 67 -86 150 -116 35
-12 39 -12 35 0 -3 8 1 17 9 20 20 8 28 -17 19 -62 -10 -54 -21 -62 -82 -62
-71 0 -113 21 -168 82 l-45 50 21 35 c12 19 19 37 15 40 -3 3 -1 12 6 20 14
17 44 12 40 -7z m686 11 c7 -4 15 -20 16 -35 2 -14 11 -35 21 -46 17 -19 17
-21 -9 -54 -56 -75 -133 -110 -204 -95 -44 9 -50 16 -58 67 -6 40 -5 42 17 42
19 0 21 -2 9 -10 -30 -20 18 -11 73 14 60 26 122 85 107 100 -22 22 0 35 28
17z"/>
<path d="M864 1701 c-47 -22 -84 -68 -84 -104 0 -41 17 -41 36 -1 10 20 31 45
48 55 65 40 170 11 183 -51 6 -32 20 -39 29 -15 10 24 -16 74 -51 101 -44 33
-109 40 -161 15z"/>
<path d="M1118 1393 c6 -2 18 -2 25 0 6 3 1 5 -13 5 -14 0 -19 -2 -12 -5z"/>
<path d="M1280 1219 c-66 -56 -171 -64 -265 -19 -69 33 -73 34 -47 11 52 -45
179 -64 255 -37 42 15 107 57 107 69 0 13 -15 6 -50 -24z"/>
<path d="M1505 480 c-3 -5 -1 -10 4 -10 6 0 11 5 11 10 0 6 -2 10 -4 10 -3 0
-8 -4 -11 -10z"/>
<path d="M1470 450 c0 -5 5 -10 10 -10 6 0 10 5 10 10 0 6 -4 10 -10 10 -5 0
-10 -4 -10 -10z"/>
<path d="M1445 430 c3 -5 8 -10 11 -10 2 0 4 5 4 10 0 6 -5 10 -11 10 -5 0 -7
-4 -4 -10z"/>
<path d="M1395 410 c-3 -5 -2 -10 4 -10 5 0 13 5 16 10 3 6 2 10 -4 10 -5 0
-13 -4 -16 -10z"/>
<path d="M1575 420 c-3 -5 -3 -10 2 -10 4 0 1 -5 -7 -10 -12 -8 -11 -10 8 -10
12 0 22 6 22 14 0 19 -17 29 -25 16z"/>
<path d="M1545 370 c-3 -5 -1 -10 4 -10 6 0 11 5 11 10 0 6 -2 10 -4 10 -3 0
-8 -4 -11 -10z"/>
</g>
</svg>
